<svg xmlns="http://www.w3.org/2000/svg" xmlns:xlink="http://www.w3.org/1999/xlink" version="1.1" x="0px" y="0px" viewBox="0 0 100 125" enable-background="new 0 0 100 100" xml:space="preserve"><path fill="#000000" d="M91.451,23.205c-0.002-0.019-0.006-0.031-0.013-0.048c-0.004-0.009,0.001-0.019-0.004-0.026  s-0.015-0.009-0.021-0.016c-0.012-0.016-0.021-0.025-0.037-0.037c-0.007-0.006-0.008-0.016-0.016-0.021L59.806,4.833  c-0.007-0.004-0.015,0-0.022-0.003c-0.025-0.012-0.049-0.011-0.076-0.011c-0.026,0-0.048-0.002-0.072,0.008  c-0.008,0.004-0.016-0.001-0.023,0.003l-0.521,0.281c-0.009,0.005-0.011,0.017-0.019,0.022c-0.016,0.012-0.027,0.022-0.039,0.038  c-0.006,0.007-0.016,0.008-0.021,0.016c-0.004,0.008,0,0.016-0.003,0.023c-0.008,0.017-0.01,0.03-0.013,0.048  c-0.002,0.011-0.012,0.018-0.012,0.028V6.17L55.53,8.164l-0.759-0.436c-0.009-0.005-0.019,0-0.028-0.004  c-0.023-0.009-0.044-0.008-0.069-0.009c-0.027,0-0.05,0-0.075,0.011c-0.009,0.003-0.019-0.002-0.026,0.003l-0.535,0.309  c-0.008,0.005-0.009,0.015-0.016,0.021c-0.016,0.012-0.025,0.021-0.037,0.037c-0.006,0.007-0.016,0.008-0.021,0.016  s0,0.018-0.004,0.026c-0.007,0.017-0.011,0.029-0.013,0.048c-0.002,0.01-0.011,0.016-0.011,0.025v5.877l-0.406,0.237  c-0.009,0.005-0.009,0.016-0.017,0.021c-0.014,0.011-0.024,0.021-0.035,0.036c-0.006,0.007-0.016,0.008-0.021,0.016  s0,0.018-0.003,0.026c-0.008,0.017-0.012,0.03-0.014,0.049c-0.002,0.009-0.011,0.015-0.011,0.024v0.869l-2.937,1.699l-9.096-5.259  c-0.008-0.005-0.018,0-0.027-0.004c-0.025-0.011-0.047-0.01-0.075-0.01c-0.027,0-0.048,0-0.073,0.011  c-0.009,0.004-0.019-0.001-0.028,0.004l-0.521,0.309c-0.008,0.005-0.008,0.015-0.015,0.021c-0.014,0.011-0.024,0.021-0.035,0.035  c-0.006,0.008-0.017,0.008-0.021,0.017s0,0.019-0.004,0.027c-0.006,0.017-0.011,0.03-0.013,0.048  c-0.001,0.009-0.01,0.015-0.01,0.024v0.869l-3.454,1.992l-0.743-0.445c-0.009-0.005-0.02,0-0.029-0.004  c-0.026-0.011-0.048-0.011-0.076-0.011c-0.025,0-0.045,0.001-0.068,0.01c-0.01,0.004-0.021-0.001-0.031,0.005l-0.548,0.324  c-0.008,0.005-0.008,0.015-0.015,0.021c-0.015,0.011-0.024,0.021-0.035,0.035c-0.006,0.008-0.017,0.008-0.021,0.017  s0,0.019-0.003,0.027c-0.007,0.017-0.011,0.03-0.013,0.048c-0.001,0.009-0.01,0.015-0.01,0.024v1.145L19.7,7.21  c-0.008-0.005-0.017,0-0.024-0.003c-0.025-0.011-0.047-0.011-0.074-0.011s-0.049-0.001-0.074,0.009  c-0.008,0.003-0.017-0.002-0.025,0.003l-0.506,0.281c-0.009,0.005-0.01,0.017-0.018,0.022c-0.015,0.011-0.026,0.021-0.037,0.036  c-0.006,0.008-0.017,0.008-0.021,0.017c-0.004,0.008,0,0.017-0.003,0.025c-0.007,0.017-0.01,0.029-0.012,0.048  c-0.001,0.01-0.011,0.016-0.011,0.026v0.799l-9.798,5.65l-0.688-0.395c-0.008-0.005-0.018,0-0.027-0.003  c-0.024-0.011-0.047-0.01-0.074-0.01c-0.026,0-0.048,0-0.073,0.01c-0.009,0.004-0.019-0.001-0.027,0.004L7.673,14.03  c-0.008,0.005-0.009,0.016-0.016,0.021c-0.014,0.011-0.024,0.021-0.035,0.035c-0.006,0.008-0.017,0.008-0.021,0.017  s0,0.018-0.003,0.027c-0.007,0.016-0.011,0.029-0.013,0.047c-0.001,0.01-0.01,0.016-0.01,0.025v57.486  c0,0.01,0.009,0.016,0.01,0.025c0.003,0.025,0.015,0.044,0.028,0.067s0.024,0.043,0.045,0.06c0.007,0.005,0.008,0.016,0.016,0.021  l41.175,23.793c0.031,0.019,0.065,0.027,0.1,0.027s0.068-0.009,0.1-0.027l11.827-6.834c0.008-0.005,0.009-0.015,0.016-0.021  c0.022-0.017,0.033-0.037,0.047-0.061c0.013-0.022,0.024-0.041,0.027-0.066c0.002-0.01,0.011-0.016,0.011-0.025v-0.326l2.455,1.427  c0.031,0.019,0.066,0.027,0.101,0.027s0.068-0.009,0.101-0.027l5.555-3.219l5.566-3.22h0.001l5.555-3.193c0,0,0-0.001,0.001-0.001  l5.555-3.219c0,0,0-0.001,0.001-0.001l5.581-3.22c0.008-0.005,0.009-0.015,0.016-0.021c0.022-0.017,0.033-0.036,0.047-0.061  c0.013-0.022,0.024-0.04,0.027-0.066c0.002-0.01,0.011-0.016,0.011-0.025L91.462,23.23C91.462,23.221,91.453,23.215,91.451,23.205z   M59.386,5.633l30.431,17.58l-0.1,0.056L59.65,5.901c-0.009-0.005-0.018,0-0.027-0.004c-0.023-0.01-0.045-0.009-0.071-0.009  c-0.026-0.001-0.049-0.001-0.074,0.009c-0.009,0.004-0.018-0.001-0.026,0.004l-0.065,0.038V5.633z M59.285,6.458l0.266-0.153  l29.765,17.193l-3.622,2.09L55.929,8.395L59.285,6.458z M54.337,8.557l31.156,17.996l0.01,5.535L54.337,14.102V8.557z   M53.831,14.844l30.423,17.571l-0.108,0.063L54.082,15.112c-0.008-0.005-0.018,0-0.026-0.004c-0.024-0.01-0.045-0.009-0.071-0.01  c-0.026,0-0.049-0.002-0.073,0.009c-0.009,0.003-0.019-0.002-0.026,0.003l-0.054,0.03V14.844z M40.978,12.635l32.22,18.597  l-0.091,0.052L41.244,12.905c-0.007-0.004-0.015,0-0.023-0.003c-0.024-0.011-0.047-0.01-0.074-0.01  c-0.026-0.001-0.049-0.003-0.073,0.007c-0.008,0.003-0.016-0.002-0.024,0.002l-0.071,0.038V12.635z M40.871,13.45  c0,0,0.001,0,0.001,0l0.269-0.144l31.567,18.207l-3.622,2.09L37.521,15.383L40.871,13.45z M19.294,8.011l40.072,23.14l-0.055,0.032  L19.531,8.208c-0.009-0.005-0.019,0-0.027-0.004c-0.024-0.01-0.047-0.01-0.074-0.01c-0.026,0-0.048-0.001-0.073,0.01  c-0.009,0.004-0.019-0.001-0.027,0.004l-0.036,0.021V8.011z M19.193,8.752c0-0.001,0.001-0.001,0.002-0.001l0.237-0.139  l39.481,22.802l-9.923,5.719L9.495,14.344L19.193,8.752z M48.748,95.137L7.974,71.574V14.55l40.774,23.548V95.137z M48.948,37.752  L8.172,14.203l0.136-0.079l0.688,0.394c0,0,0.001,0,0.002,0.001l39.893,23.018c0.031,0.019,0.065,0.027,0.1,0.027  s0.068-0.009,0.1-0.027l10.322-5.949c0,0,0,0,0-0.001c0.001,0,0.002,0,0.002,0l0.449-0.266c0.021-0.013,0.026-0.037,0.042-0.055  c0.008-0.01,0.022-0.007,0.029-0.018c0.005-0.009,0-0.018,0.004-0.026c0.01-0.025,0.01-0.048,0.01-0.075  c0-0.026,0-0.048-0.011-0.072c-0.004-0.009,0.001-0.019-0.004-0.027c-0.01-0.016-0.028-0.019-0.041-0.031  c-0.013-0.012-0.016-0.031-0.031-0.04L19.499,7.668l0.099-0.056l16.031,9.252l24.748,14.284L48.948,37.752z M60.575,35.227v0.576  v0.422v4.795v0.619v46.336v0.559l-11.427,6.604V38.098l11.427-6.604V35.227z M63.331,89.229l-2.355-1.369V41.986l2.355,1.371V89.229  z M63.531,43.011l-2.556-1.487v-0.158l2.456,1.417c0.031,0.019,0.065,0.027,0.1,0.027s0.068-0.009,0.1-0.027l4.148-2.391  l0.365-0.211c0.021-0.013,0.027-0.036,0.042-0.054c0.009-0.01,0.024-0.007,0.031-0.019c0.005-0.009,0-0.019,0.004-0.027  c0.01-0.024,0.01-0.046,0.01-0.072c0-0.027,0-0.05-0.01-0.074c-0.004-0.009,0.001-0.019-0.004-0.026  c-0.009-0.016-0.027-0.019-0.04-0.03c-0.013-0.014-0.016-0.033-0.032-0.043l-7.17-4.147v-0.115l7.712,4.449L63.531,43.011z   M60.976,40.904v-4.333l6.305,3.647l-3.749,2.16L60.976,40.904z M68.886,86.242l-5.154,2.986V43.357l5.154-2.988V86.242z   M68.886,39.676l-7.91-4.564v-3.963c0-0.01-0.009-0.016-0.011-0.025c-0.002-0.019-0.006-0.031-0.013-0.048  c-0.004-0.009,0.001-0.019-0.004-0.026s-0.015-0.009-0.021-0.016c-0.012-0.016-0.021-0.025-0.037-0.037  c-0.007-0.006-0.008-0.016-0.016-0.021L35.93,16.576v-1.029l32.956,19.021V39.676z M69.086,34.223l-32.96-19.023l0.151-0.09  l0.742,0.445c0.001,0,0.002,0,0.003,0.001l31.965,18.451c0.031,0.019,0.065,0.027,0.1,0.027s0.068-0.009,0.1-0.027l4.019-2.318  c0.001-0.001,0.002,0,0.003-0.001l0.492-0.281c0.022-0.013,0.029-0.038,0.044-0.058c0.008-0.009,0.023-0.006,0.029-0.017  c0.005-0.008,0-0.017,0.003-0.024c0.011-0.025,0.011-0.049,0.011-0.076c0-0.026,0.001-0.048-0.009-0.071  c-0.004-0.009,0.001-0.019-0.004-0.027c-0.01-0.017-0.029-0.02-0.043-0.032c-0.012-0.013-0.015-0.032-0.031-0.041L41.173,12.287  l0.126-0.075l9.096,5.258l23.859,13.776L69.086,34.223z M74.454,31.852v0.633V36v0.576v0.576v4.641v0.619v40.609l-5.168,2.989  V40.021v-5.453l5.168-2.977V31.852z M74.831,31.173c-0.004-0.009,0.001-0.019-0.004-0.026s-0.015-0.009-0.021-0.016  c-0.012-0.016-0.021-0.025-0.037-0.037c-0.007-0.006-0.008-0.016-0.016-0.021L50.895,17.297l2.833-1.64h0.001l0.253-0.142  l29.766,17.193l-3.608,2.089l-5.284-3.062v-0.49c0-0.01-0.009-0.016-0.011-0.025C74.842,31.202,74.838,31.189,74.831,31.173z   M78.263,39.473l-3.408,1.974v-3.947L78.263,39.473z M74.854,37.037v-0.115l3.915,2.257l-0.107,0.062L74.854,37.037z M78.763,39.646  l0.506-0.295c0.022-0.013,0.028-0.037,0.043-0.056c0.008-0.01,0.023-0.007,0.029-0.018c0.005-0.008,0-0.018,0.003-0.026  c0.011-0.024,0.011-0.048,0.011-0.075c-0.001-0.025,0-0.047-0.01-0.071c-0.004-0.009,0.001-0.019-0.004-0.027  c-0.01-0.017-0.028-0.02-0.042-0.031c-0.013-0.013-0.016-0.032-0.031-0.041l-4.413-2.544v-0.115l4.944,2.853l-4.944,2.866v-0.156  L78.763,39.646z M74.854,35.885V32.83l5.084,2.934v3.055L74.854,35.885z M80.009,79.827l-5.154,2.964V42.527l5.154-2.988V79.827z   M80.138,35.418l-5.283-3.049v-0.171l5.184,3.004c0.032,0.019,0.066,0.027,0.101,0.027s0.068-0.009,0.101-0.027l4.008-2.32  l0.506-0.295c0.022-0.013,0.028-0.037,0.043-0.056c0.008-0.01,0.022-0.007,0.029-0.018c0.005-0.008,0-0.018,0.003-0.026  c0.011-0.024,0.011-0.048,0.011-0.075c-0.001-0.025,0-0.047-0.01-0.071c-0.004-0.009,0.001-0.019-0.004-0.027  c-0.01-0.017-0.029-0.02-0.042-0.032c-0.013-0.012-0.016-0.031-0.031-0.04L54.029,14.497l0.097-0.056l31.169,17.986L80.138,35.418z   M80.409,79.596V39.191c0-0.015-0.013-0.024-0.016-0.039c-0.004-0.018-0.002-0.034-0.01-0.05c-0.002-0.004,0-0.008-0.002-0.012  c-0.005-0.008-0.016-0.009-0.021-0.017c-0.008-0.01-0.012-0.021-0.021-0.029v-3.281l5.155-2.989l0.042,18.806l0.027,25.029  L80.409,79.596z M85.693,26.207L54.536,8.211l0.135-0.078l0.759,0.436c0.001,0.001,0.002,0,0.003,0.001l30.161,17.422  c0.031,0.019,0.065,0.027,0.1,0.027s0.068-0.009,0.1-0.027l4.018-2.318h0.001l0.507-0.281c0.023-0.013,0.03-0.038,0.046-0.058  c0.008-0.01,0.023-0.006,0.03-0.018c0.005-0.008,0-0.017,0.003-0.024c0.011-0.024,0.01-0.047,0.01-0.074  c0.001-0.026,0.002-0.048-0.008-0.072c-0.003-0.009,0.002-0.018-0.003-0.025c-0.01-0.018-0.029-0.021-0.043-0.034  c-0.013-0.014-0.016-0.032-0.032-0.042L59.595,5.293l0.108-0.059L90.862,23.23L85.693,26.207z M85.964,76.379L85.937,51.58  l-0.043-25.027l5.169-2.977l0.084,49.813L85.964,76.379z"/></svg>