<svg xmlns="http://www.w3.org/2000/svg" xmlns:xlink="http://www.w3.org/1999/xlink" version="1.1" x="0px" y="0px" viewBox="0 0 100 100" enable-background="new 0 0 100 100" xml:space="preserve"><polygon fill="#000000" points="16.213,17.878 12.011,20.32 51.45,43.098 55.975,40.473 16.533,17.697 "/><path fill="#000000" d="M70.249,33.205L29.223,9.517l0.026,12.82l3.482-2.019v-0.953c0-0.01,0.009-0.016,0.011-0.025  c0.002-0.019,0.006-0.032,0.014-0.049c0.003-0.009-0.002-0.018,0.003-0.025s0.015-0.009,0.021-0.016  c0.012-0.016,0.021-0.025,0.037-0.037c0.008-0.006,0.008-0.017,0.017-0.021l0.618-0.352c0.009-0.005,0.018,0,0.027-0.004  c0.023-0.01,0.045-0.009,0.07-0.009c0.027,0,0.05,0,0.075,0.011c0.008,0.003,0.018-0.002,0.025,0.003l36.611,21.138L70.249,33.205z"/><polygon fill="#000000" points="35.212,6.909 30.996,9.352 70.448,32.129 74.973,29.504 35.532,6.729 "/><path fill="#000000" d="M56.491,40.176L16.312,16.982v0.38l0.123-0.069c0.009-0.005,0.018,0,0.026-0.003  c0.024-0.011,0.047-0.01,0.073-0.01c0.026,0.001,0.049,0,0.073,0.011c0.009,0.003,0.018-0.002,0.025,0.003l39.74,22.948  L56.491,40.176z"/><path fill="#000000" d="M33.366,20.009c0.028,0,0.052-0.001,0.077,0.011c0.008,0.003,0.016-0.001,0.023,0.003l35.235,20.345  l0.092-0.057l-35.662-20.6v0.385l0.14-0.076c0.008-0.005,0.017,0,0.025-0.003C33.32,20.008,33.341,20.009,33.366,20.009z"/><path fill="#000000" d="M52.278,9.05c0.025-0.011,0.048-0.01,0.075-0.01c0.026,0.001,0.048,0,0.072,0.01  c0.008,0.004,0.018-0.001,0.025,0.004L87.689,29.4l0.109-0.064L52.13,8.742v0.38l0.123-0.069C52.261,9.048,52.271,9.053,52.278,9.05  z"/><path fill="#000000" d="M75.49,29.207L35.312,6.014v0.38l0.123-0.069c0.008-0.005,0.018,0,0.026-0.003  c0.024-0.011,0.047-0.01,0.073-0.01c0.027,0,0.049,0,0.073,0.01c0.008,0.004,0.018-0.001,0.025,0.004l39.739,22.948L75.49,29.207z"/><path fill="#000000" d="M62.691,50.896c-0.007,0.012-0.023,0.009-0.031,0.019c-0.017,0.019-0.023,0.044-0.047,0.057l-0.521,0.281  l-3.719,2.146v0.299l5.011-2.889l-5.025-2.902v0.242l4.26,2.474c0.018,0.01,0.021,0.03,0.033,0.044  c0.014,0.014,0.033,0.017,0.042,0.034c0.004,0.008-0.001,0.016,0.003,0.023c0.01,0.025,0.008,0.048,0.008,0.075  c-0.001,0.025,0,0.048-0.011,0.072C62.691,50.879,62.696,50.888,62.691,50.896z"/><polygon fill="#000000" points="57.959,48.264 57.959,47.561 57.959,40.951 57.959,40.537 51.651,44.174 51.749,95.181   58.015,91.545 57.974,54.043 57.974,53.284 57.959,48.868 57.959,48.867 "/><path fill="#000000" d="M77.358,36.938v0.255l4.259,2.46c0.017,0.01,0.02,0.029,0.032,0.042c0.014,0.014,0.034,0.018,0.044,0.036  c0.004,0.008-0.001,0.016,0.002,0.023c0.011,0.024,0.009,0.047,0.008,0.073c0,0.027,0.001,0.05-0.01,0.074  c-0.003,0.008,0.001,0.017-0.003,0.023c-0.007,0.012-0.022,0.008-0.03,0.018c-0.016,0.02-0.023,0.046-0.048,0.059l-0.516,0.278  c-0.001,0-0.001,0.001-0.001,0.001L77.36,42.43l0.006,0.302l5.003-2.892L77.358,36.938z"/><polygon fill="#000000" points="63.64,88.31 63.584,51.154 58.374,54.158 58.415,91.314 "/><polygon fill="#000000" points="76.958,42.318 76.959,42.316 76.958,42.314 76.958,37.898 76.958,37.309 76.958,36.592   76.943,29.982 76.943,29.568 70.649,33.204 70.733,84.213 77.028,80.577 76.972,43.078 "/><polygon fill="#000000" points="61.598,51.077 58.36,49.214 58.373,52.938 "/><path fill="#000000" d="M76.744,29.223L47.333,12.241c-0.001-0.001-0.002,0-0.003-0.001L35.703,5.549l-0.197,0.117l40.486,23.37  c0.017,0.01,0.02,0.028,0.032,0.041s0.032,0.017,0.042,0.033c0.005,0.008,0,0.018,0.003,0.026c0.011,0.024,0.01,0.046,0.009,0.072  c0,0.027,0.001,0.05-0.01,0.075c-0.003,0.008,0.002,0.017-0.003,0.024c-0.007,0.011-0.021,0.008-0.029,0.018  c-0.016,0.019-0.022,0.044-0.045,0.057l-0.52,0.294l-4.922,2.855c-0.032,0.019-0.066,0.027-0.101,0.027s-0.068-0.009-0.1-0.027  L30.498,9.525c-0.001-0.001-0.001-0.001-0.002-0.001l-0.843-0.489L29.421,9.17l41.028,23.689L76.744,29.223z"/><polygon fill="#000000" points="70.25,40.664 63.957,44.3 63.984,50.808 63.984,50.809 64.039,88.08 70.334,84.444 "/><path fill="#000000" d="M70.051,40.318L33.55,19.244l-0.217,0.123l35.95,20.765c0.015,0.009,0.018,0.026,0.029,0.037  c0.013,0.013,0.031,0.015,0.041,0.03c0.006,0.01,0.001,0.021,0.005,0.03c0.011,0.023,0.012,0.045,0.012,0.071  c0.001,0.027,0,0.05-0.01,0.075c-0.004,0.01,0.001,0.02-0.004,0.028c-0.006,0.011-0.021,0.008-0.028,0.017  c-0.015,0.018-0.019,0.041-0.039,0.054l-0.478,0.295c-0.001,0.001-0.003,0-0.004,0.001s-0.001,0.002-0.002,0.003l-4.95,2.826  c-0.031,0.018-0.065,0.026-0.1,0.026s-0.068-0.009-0.1-0.027l-5.297-3.062v0.299l5.396,3.119L70.051,40.318z"/><polygon fill="#000000" points="63.756,43.195 68.305,40.598 33.365,20.425 33.027,20.609 29.15,22.856 29.148,22.856   29.148,22.857 28.833,23.037 58.259,40.019 "/><polygon fill="#000000" points="62.109,50.789 58.359,48.611 58.359,48.751 62.002,50.848 "/><polygon fill="#000000" points="63.557,44.301 58.359,41.297 58.359,47.445 63.582,50.462 "/><polygon fill="#000000" points="87.291,29.631 52.351,9.456 52.03,9.638 47.829,12.066 77.243,29.05 82.769,32.24 "/><path fill="#000000" d="M52.549,8.275l-0.217,0.123l35.965,20.765c0.016,0.009,0.019,0.028,0.031,0.04  c0.013,0.013,0.032,0.016,0.042,0.032c0.005,0.009,0,0.019,0.004,0.027c0.01,0.024,0.009,0.046,0.01,0.071  c0,0.027,0,0.051-0.011,0.075c-0.003,0.009,0.002,0.019-0.003,0.026c-0.007,0.011-0.021,0.008-0.029,0.018  c-0.015,0.019-0.021,0.043-0.043,0.056l-0.507,0.295c-0.001,0-0.001,0-0.002,0.001l-4.921,2.839c-0.031,0.019-0.065,0.027-0.1,0.027  s-0.068-0.009-0.1-0.027l-5.325-3.075v0.298l5.425,3.119l6.267-3.636L52.549,8.275z"/><polygon fill="#000000" points="77.372,43.188 77.428,80.346 82.624,77.343 82.568,40.186 "/><polygon fill="#000000" points="10.308,71.492 51.349,95.181 51.251,44.174 10.225,20.485 "/><polygon fill="#000000" points="82.969,33.332 82.969,39.84 83.023,77.111 89.333,73.475 89.234,29.696 "/><polygon fill="#000000" points="81.108,39.82 77.358,37.654 77.358,37.783 81,39.879 "/><polygon fill="#000000" points="82.568,39.493 82.568,33.333 77.345,30.329 77.358,36.477 "/><polygon fill="#000000" points="77.358,38.245 77.358,41.968 80.595,40.106 "/><path fill="#000000" d="M10.426,20.141l41.025,23.688l6.309-3.637L28.332,23.208l-11.614-6.692l-0.207,0.121l40.482,23.368  c0.017,0.01,0.02,0.028,0.032,0.042c0.013,0.013,0.032,0.016,0.042,0.032c0.005,0.008,0,0.018,0.003,0.026  c0.011,0.023,0.01,0.046,0.01,0.072c0,0.027,0,0.049-0.01,0.074c-0.004,0.008,0.001,0.018-0.004,0.025  c-0.007,0.012-0.022,0.008-0.03,0.018c-0.016,0.019-0.021,0.044-0.044,0.057l-0.519,0.294l-4.922,2.855  c-0.032,0.019-0.066,0.027-0.101,0.027s-0.068-0.009-0.1-0.027L11.514,20.494c-0.001-0.001-0.001-0.001-0.002-0.001l-0.844-0.489  L10.426,20.141z"/></svg>